<mxfile host="app.diagrams.net" modified="2024-03-07T07:39:45.737Z" agent="Mozilla/5.0 (Windows NT 10.0; Win64; x64) AppleWebKit/537.36 (KHTML, like Gecko) Chrome/122.0.0.0 Safari/537.36" etag="iVr38fZ4rT69F9mVDFMC" version="23.1.7" type="device">
  <diagram name="페이지-1" id="vhYBJOvGmw5kMRopdo48">
    <mxGraphModel dx="2634" dy="1630" grid="0" gridSize="10" guides="1" tooltips="1" connect="1" arrows="1" fold="1" page="0" pageScale="1" pageWidth="827" pageHeight="1169" math="0" shadow="0">
      <root>
        <mxCell id="0" />
        <mxCell id="1" parent="0" />
        <mxCell id="ph6KvJz50yeCgQCEXLz_-5" value="&lt;font style=&quot;font-size: 23px;&quot;&gt;학점 산출 프로그램 시나리오&lt;/font&gt;" style="text;html=1;align=center;verticalAlign=middle;resizable=0;points=[];autosize=1;strokeColor=none;fillColor=none;fontSize=16;" vertex="1" parent="1">
          <mxGeometry x="-1125" y="-417" width="313" height="40" as="geometry" />
        </mxCell>
        <mxCell id="ph6KvJz50yeCgQCEXLz_-27" style="edgeStyle=none;curved=1;rounded=0;orthogonalLoop=1;jettySize=auto;html=1;entryX=1;entryY=0.5;entryDx=0;entryDy=0;fontSize=12;startSize=8;endSize=8;" edge="1" parent="1" target="ph6KvJz50yeCgQCEXLz_-48">
          <mxGeometry relative="1" as="geometry">
            <mxPoint x="-679" y="-172" as="sourcePoint" />
            <mxPoint x="-901" y="-180" as="targetPoint" />
          </mxGeometry>
        </mxCell>
        <mxCell id="ph6KvJz50yeCgQCEXLz_-51" style="edgeStyle=none;curved=1;rounded=0;orthogonalLoop=1;jettySize=auto;html=1;fontSize=12;startSize=8;endSize=8;" edge="1" parent="1" source="ph6KvJz50yeCgQCEXLz_-8" target="ph6KvJz50yeCgQCEXLz_-50">
          <mxGeometry relative="1" as="geometry" />
        </mxCell>
        <mxCell id="ph6KvJz50yeCgQCEXLz_-8" value="&lt;font style=&quot;font-size: 26px;&quot;&gt;학생&lt;br&gt;student&lt;/font&gt;" style="rounded=1;whiteSpace=wrap;html=1;glass=0;" vertex="1" parent="1">
          <mxGeometry x="-671.5" y="-209" width="195" height="83" as="geometry" />
        </mxCell>
        <mxCell id="ph6KvJz50yeCgQCEXLz_-33" style="edgeStyle=none;curved=1;rounded=0;orthogonalLoop=1;jettySize=auto;html=1;fontSize=12;startSize=8;endSize=8;" edge="1" parent="1" source="ph6KvJz50yeCgQCEXLz_-9" target="ph6KvJz50yeCgQCEXLz_-11">
          <mxGeometry relative="1" as="geometry" />
        </mxCell>
        <mxCell id="ph6KvJz50yeCgQCEXLz_-9" value="&lt;font style=&quot;font-size: 26px;&quot;&gt;과목&amp;nbsp;&lt;br&gt;subject&lt;/font&gt;" style="rounded=0;whiteSpace=wrap;html=1;" vertex="1" parent="1">
          <mxGeometry x="-1007.5" y="71" width="187.5" height="131" as="geometry" />
        </mxCell>
        <mxCell id="ph6KvJz50yeCgQCEXLz_-10" style="edgeStyle=none;curved=1;rounded=0;orthogonalLoop=1;jettySize=auto;html=1;exitX=1;exitY=1;exitDx=0;exitDy=0;fontSize=12;startSize=8;endSize=8;" edge="1" parent="1" source="ph6KvJz50yeCgQCEXLz_-8" target="ph6KvJz50yeCgQCEXLz_-8">
          <mxGeometry relative="1" as="geometry" />
        </mxCell>
        <mxCell id="ph6KvJz50yeCgQCEXLz_-35" style="edgeStyle=none;curved=1;rounded=0;orthogonalLoop=1;jettySize=auto;html=1;fontSize=12;startSize=8;endSize=8;" edge="1" parent="1" source="ph6KvJz50yeCgQCEXLz_-11">
          <mxGeometry relative="1" as="geometry">
            <mxPoint x="-342" y="132.5" as="targetPoint" />
          </mxGeometry>
        </mxCell>
        <mxCell id="ph6KvJz50yeCgQCEXLz_-36" style="edgeStyle=none;curved=1;rounded=0;orthogonalLoop=1;jettySize=auto;html=1;entryX=1;entryY=0.5;entryDx=0;entryDy=0;fontSize=12;startSize=8;endSize=8;" edge="1" parent="1" source="ph6KvJz50yeCgQCEXLz_-11" target="ph6KvJz50yeCgQCEXLz_-9">
          <mxGeometry relative="1" as="geometry" />
        </mxCell>
        <mxCell id="ph6KvJz50yeCgQCEXLz_-11" value="&lt;font style=&quot;font-size: 26px;&quot;&gt;점수&lt;br&gt;score&lt;/font&gt;" style="rounded=0;whiteSpace=wrap;html=1;" vertex="1" parent="1">
          <mxGeometry x="-321" y="67" width="175" height="131" as="geometry" />
        </mxCell>
        <mxCell id="ph6KvJz50yeCgQCEXLz_-39" style="edgeStyle=none;curved=1;rounded=0;orthogonalLoop=1;jettySize=auto;html=1;fontSize=12;startSize=8;endSize=8;" edge="1" parent="1" source="ph6KvJz50yeCgQCEXLz_-12" target="ph6KvJz50yeCgQCEXLz_-8">
          <mxGeometry relative="1" as="geometry" />
        </mxCell>
        <mxCell id="ph6KvJz50yeCgQCEXLz_-12" value="&lt;font style=&quot;font-size: 24px;&quot;&gt;학번&lt;br&gt;no&lt;/font&gt;" style="ellipse;whiteSpace=wrap;html=1;" vertex="1" parent="1">
          <mxGeometry x="-846" y="-357" width="120" height="80" as="geometry" />
        </mxCell>
        <mxCell id="ph6KvJz50yeCgQCEXLz_-40" style="edgeStyle=none;curved=1;rounded=0;orthogonalLoop=1;jettySize=auto;html=1;entryX=0.5;entryY=0;entryDx=0;entryDy=0;fontSize=12;startSize=8;endSize=8;" edge="1" parent="1" source="ph6KvJz50yeCgQCEXLz_-13" target="ph6KvJz50yeCgQCEXLz_-8">
          <mxGeometry relative="1" as="geometry" />
        </mxCell>
        <mxCell id="ph6KvJz50yeCgQCEXLz_-13" value="&lt;font style=&quot;font-size: 26px;&quot;&gt;이름&amp;nbsp;&lt;br&gt;name&lt;/font&gt;" style="ellipse;whiteSpace=wrap;html=1;" vertex="1" parent="1">
          <mxGeometry x="-638" y="-361" width="120" height="80" as="geometry" />
        </mxCell>
        <mxCell id="ph6KvJz50yeCgQCEXLz_-14" value="&lt;font style=&quot;font-size: 24px;&quot;&gt;필수과목&lt;br&gt;subject&lt;br&gt;&lt;/font&gt;" style="ellipse;whiteSpace=wrap;html=1;" vertex="1" parent="1">
          <mxGeometry x="-430" y="-361" width="120" height="80" as="geometry" />
        </mxCell>
        <mxCell id="ph6KvJz50yeCgQCEXLz_-42" style="edgeStyle=none;curved=1;rounded=0;orthogonalLoop=1;jettySize=auto;html=1;exitX=0.5;exitY=0;exitDx=0;exitDy=0;entryX=0.25;entryY=1;entryDx=0;entryDy=0;fontSize=12;startSize=8;endSize=8;" edge="1" parent="1" source="ph6KvJz50yeCgQCEXLz_-15" target="ph6KvJz50yeCgQCEXLz_-9">
          <mxGeometry relative="1" as="geometry" />
        </mxCell>
        <mxCell id="ph6KvJz50yeCgQCEXLz_-15" value="&lt;span style=&quot;font-size: 24px;&quot;&gt;과목코드&lt;br&gt;code&lt;br&gt;&lt;/span&gt;" style="ellipse;whiteSpace=wrap;html=1;" vertex="1" parent="1">
          <mxGeometry x="-1109" y="238" width="120" height="80" as="geometry" />
        </mxCell>
        <mxCell id="ph6KvJz50yeCgQCEXLz_-43" style="edgeStyle=none;curved=1;rounded=0;orthogonalLoop=1;jettySize=auto;html=1;fontSize=12;startSize=8;endSize=8;" edge="1" parent="1" source="ph6KvJz50yeCgQCEXLz_-16" target="ph6KvJz50yeCgQCEXLz_-9">
          <mxGeometry relative="1" as="geometry" />
        </mxCell>
        <mxCell id="ph6KvJz50yeCgQCEXLz_-16" value="&lt;font style=&quot;font-size: 22px;&quot;&gt;평가방법&lt;br&gt;(style)&lt;/font&gt;&lt;span style=&quot;font-size: 22px;&quot;&gt;&lt;br&gt;&lt;/span&gt;" style="ellipse;whiteSpace=wrap;html=1;" vertex="1" parent="1">
          <mxGeometry x="-966" y="239" width="120" height="77" as="geometry" />
        </mxCell>
        <mxCell id="ph6KvJz50yeCgQCEXLz_-17" value="&lt;span style=&quot;font-size: 22px;&quot;&gt;과목명&lt;br&gt;name&lt;br&gt;&lt;/span&gt;" style="ellipse;whiteSpace=wrap;html=1;" vertex="1" parent="1">
          <mxGeometry x="-832" y="239" width="120" height="77" as="geometry" />
        </mxCell>
        <mxCell id="ph6KvJz50yeCgQCEXLz_-45" style="edgeStyle=none;curved=1;rounded=0;orthogonalLoop=1;jettySize=auto;html=1;entryX=0.25;entryY=1;entryDx=0;entryDy=0;fontSize=12;startSize=8;endSize=8;" edge="1" parent="1" source="ph6KvJz50yeCgQCEXLz_-18" target="ph6KvJz50yeCgQCEXLz_-11">
          <mxGeometry relative="1" as="geometry" />
        </mxCell>
        <mxCell id="ph6KvJz50yeCgQCEXLz_-18" value="&lt;span style=&quot;font-size: 22px;&quot;&gt;학생번호&lt;br&gt;no&lt;br&gt;&lt;/span&gt;" style="ellipse;whiteSpace=wrap;html=1;" vertex="1" parent="1">
          <mxGeometry x="-467" y="236" width="120" height="80" as="geometry" />
        </mxCell>
        <mxCell id="ph6KvJz50yeCgQCEXLz_-46" style="edgeStyle=none;curved=1;rounded=0;orthogonalLoop=1;jettySize=auto;html=1;fontSize=12;startSize=8;endSize=8;" edge="1" parent="1" source="ph6KvJz50yeCgQCEXLz_-19" target="ph6KvJz50yeCgQCEXLz_-11">
          <mxGeometry relative="1" as="geometry" />
        </mxCell>
        <mxCell id="ph6KvJz50yeCgQCEXLz_-19" value="&lt;span style=&quot;font-size: 22px;&quot;&gt;과목&lt;br&gt;subject&lt;br&gt;&lt;/span&gt;" style="ellipse;whiteSpace=wrap;html=1;" vertex="1" parent="1">
          <mxGeometry x="-279" y="233" width="120" height="80" as="geometry" />
        </mxCell>
        <mxCell id="ph6KvJz50yeCgQCEXLz_-20" value="&lt;span style=&quot;font-size: 22px;&quot;&gt;점수&lt;br&gt;point&lt;br&gt;&lt;/span&gt;" style="ellipse;whiteSpace=wrap;html=1;" vertex="1" parent="1">
          <mxGeometry x="-96" y="233" width="120" height="80" as="geometry" />
        </mxCell>
        <mxCell id="ph6KvJz50yeCgQCEXLz_-29" value="n" style="text;html=1;align=center;verticalAlign=middle;resizable=0;points=[];autosize=1;strokeColor=none;fillColor=none;fontSize=16;" vertex="1" parent="1">
          <mxGeometry x="-790" y="-172" width="27" height="31" as="geometry" />
        </mxCell>
        <mxCell id="ph6KvJz50yeCgQCEXLz_-30" value="1" style="text;html=1;align=center;verticalAlign=middle;resizable=0;points=[];autosize=1;strokeColor=none;fillColor=none;fontSize=16;" vertex="1" parent="1">
          <mxGeometry x="-402" y="-172" width="27" height="31" as="geometry" />
        </mxCell>
        <mxCell id="ph6KvJz50yeCgQCEXLz_-32" value="1" style="text;html=1;align=center;verticalAlign=middle;resizable=0;points=[];autosize=1;strokeColor=none;fillColor=none;fontSize=16;" vertex="1" parent="1">
          <mxGeometry x="-951.5" y="41.5" width="27" height="31" as="geometry" />
        </mxCell>
        <mxCell id="ph6KvJz50yeCgQCEXLz_-34" style="edgeStyle=none;curved=1;rounded=0;orthogonalLoop=1;jettySize=auto;html=1;entryX=0;entryY=0.5;entryDx=0;entryDy=0;fontSize=12;startSize=8;endSize=8;" edge="1" parent="1" source="ph6KvJz50yeCgQCEXLz_-11" target="ph6KvJz50yeCgQCEXLz_-11">
          <mxGeometry relative="1" as="geometry" />
        </mxCell>
        <mxCell id="ph6KvJz50yeCgQCEXLz_-37" value="1" style="text;html=1;align=center;verticalAlign=middle;resizable=0;points=[];autosize=1;strokeColor=none;fillColor=none;fontSize=16;" vertex="1" parent="1">
          <mxGeometry x="-796.5" y="91.5" width="27" height="31" as="geometry" />
        </mxCell>
        <mxCell id="ph6KvJz50yeCgQCEXLz_-38" value="1" style="text;html=1;align=center;verticalAlign=middle;resizable=0;points=[];autosize=1;strokeColor=none;fillColor=none;fontSize=16;" vertex="1" parent="1">
          <mxGeometry x="-368.5" y="87.5" width="27" height="31" as="geometry" />
        </mxCell>
        <mxCell id="ph6KvJz50yeCgQCEXLz_-41" style="edgeStyle=none;curved=1;rounded=0;orthogonalLoop=1;jettySize=auto;html=1;exitX=0.5;exitY=1;exitDx=0;exitDy=0;entryX=0.808;entryY=0.024;entryDx=0;entryDy=0;entryPerimeter=0;fontSize=12;startSize=8;endSize=8;" edge="1" parent="1" source="ph6KvJz50yeCgQCEXLz_-14" target="ph6KvJz50yeCgQCEXLz_-8">
          <mxGeometry relative="1" as="geometry" />
        </mxCell>
        <mxCell id="ph6KvJz50yeCgQCEXLz_-44" style="edgeStyle=none;curved=1;rounded=0;orthogonalLoop=1;jettySize=auto;html=1;entryX=0.867;entryY=1.008;entryDx=0;entryDy=0;entryPerimeter=0;fontSize=12;startSize=8;endSize=8;" edge="1" parent="1" source="ph6KvJz50yeCgQCEXLz_-17" target="ph6KvJz50yeCgQCEXLz_-9">
          <mxGeometry relative="1" as="geometry" />
        </mxCell>
        <mxCell id="ph6KvJz50yeCgQCEXLz_-47" style="edgeStyle=none;curved=1;rounded=0;orthogonalLoop=1;jettySize=auto;html=1;entryX=0.811;entryY=0.992;entryDx=0;entryDy=0;entryPerimeter=0;fontSize=12;startSize=8;endSize=8;" edge="1" parent="1" source="ph6KvJz50yeCgQCEXLz_-20" target="ph6KvJz50yeCgQCEXLz_-11">
          <mxGeometry relative="1" as="geometry" />
        </mxCell>
        <mxCell id="ph6KvJz50yeCgQCEXLz_-48" value="&lt;font style=&quot;font-size: 19px;&quot;&gt;수강&lt;/font&gt;" style="rhombus;whiteSpace=wrap;html=1;" vertex="1" parent="1">
          <mxGeometry x="-988" y="-212" width="116.5" height="80" as="geometry" />
        </mxCell>
        <mxCell id="ph6KvJz50yeCgQCEXLz_-49" style="edgeStyle=none;curved=1;rounded=0;orthogonalLoop=1;jettySize=auto;html=1;entryX=0.87;entryY=1.113;entryDx=0;entryDy=0;entryPerimeter=0;fontSize=12;startSize=8;endSize=8;" edge="1" parent="1" source="ph6KvJz50yeCgQCEXLz_-48" target="ph6KvJz50yeCgQCEXLz_-32">
          <mxGeometry relative="1" as="geometry" />
        </mxCell>
        <mxCell id="ph6KvJz50yeCgQCEXLz_-56" style="edgeStyle=none;curved=1;rounded=0;orthogonalLoop=1;jettySize=auto;html=1;entryX=0.5;entryY=0;entryDx=0;entryDy=0;fontSize=12;startSize=8;endSize=8;" edge="1" parent="1" source="ph6KvJz50yeCgQCEXLz_-50" target="ph6KvJz50yeCgQCEXLz_-11">
          <mxGeometry relative="1" as="geometry" />
        </mxCell>
        <mxCell id="ph6KvJz50yeCgQCEXLz_-50" value="&lt;font style=&quot;font-size: 19px;&quot;&gt;응시&lt;/font&gt;" style="rhombus;whiteSpace=wrap;html=1;" vertex="1" parent="1">
          <mxGeometry x="-292.75" y="-231" width="118.5" height="108" as="geometry" />
        </mxCell>
        <mxCell id="ph6KvJz50yeCgQCEXLz_-55" style="edgeStyle=none;curved=1;rounded=0;orthogonalLoop=1;jettySize=auto;html=1;entryX=0.5;entryY=0;entryDx=0;entryDy=0;fontSize=12;startSize=8;endSize=8;" edge="1" parent="1" source="ph6KvJz50yeCgQCEXLz_-11" target="ph6KvJz50yeCgQCEXLz_-11">
          <mxGeometry relative="1" as="geometry" />
        </mxCell>
        <mxCell id="ph6KvJz50yeCgQCEXLz_-57" value="n" style="text;html=1;align=center;verticalAlign=middle;resizable=0;points=[];autosize=1;strokeColor=none;fillColor=none;fontSize=16;" vertex="1" parent="1">
          <mxGeometry x="-223" y="-8" width="27" height="31" as="geometry" />
        </mxCell>
        <mxCell id="ph6KvJz50yeCgQCEXLz_-58" value="&lt;font style=&quot;font-size: 24px;&quot;&gt;Entity&lt;br&gt;클래스&lt;br&gt;&lt;/font&gt;" style="rounded=0;whiteSpace=wrap;html=1;" vertex="1" parent="1">
          <mxGeometry x="-38" y="-413" width="176" height="98" as="geometry" />
        </mxCell>
        <mxCell id="ph6KvJz50yeCgQCEXLz_-59" value="&lt;font style=&quot;font-size: 24px;&quot;&gt;Altribute&lt;/font&gt;" style="ellipse;whiteSpace=wrap;html=1;" vertex="1" parent="1">
          <mxGeometry x="-32.5" y="-242" width="165" height="80" as="geometry" />
        </mxCell>
        <mxCell id="ph6KvJz50yeCgQCEXLz_-65" style="edgeStyle=none;curved=1;rounded=0;orthogonalLoop=1;jettySize=auto;html=1;fontSize=12;startSize=8;endSize=8;" edge="1" parent="1">
          <mxGeometry relative="1" as="geometry">
            <mxPoint x="158" y="30" as="targetPoint" />
            <mxPoint x="-2" y="30" as="sourcePoint" />
          </mxGeometry>
        </mxCell>
        <mxCell id="ph6KvJz50yeCgQCEXLz_-60" value="&lt;font style=&quot;font-size: 22px;&quot;&gt;Relation&lt;/font&gt;" style="rhombus;whiteSpace=wrap;html=1;" vertex="1" parent="1">
          <mxGeometry x="-38" y="-104" width="185" height="80" as="geometry" />
        </mxCell>
        <mxCell id="ph6KvJz50yeCgQCEXLz_-61" value="&lt;font style=&quot;font-size: 20px;&quot;&gt;정보공학적 ERD (내부용)&lt;br&gt;(Entity Relationship Diagram)&lt;/font&gt;" style="text;html=1;align=center;verticalAlign=middle;resizable=0;points=[];autosize=1;strokeColor=none;fillColor=none;fontSize=16;" vertex="1" parent="1">
          <mxGeometry x="-1127" y="-363" width="278" height="60" as="geometry" />
        </mxCell>
        <mxCell id="ph6KvJz50yeCgQCEXLz_-62" value="&lt;font style=&quot;font-size: 21px;&quot;&gt;외부용 : 데이터베이스 ERD&lt;/font&gt;" style="text;html=1;align=center;verticalAlign=middle;resizable=0;points=[];autosize=1;strokeColor=none;fillColor=none;fontSize=16;" vertex="1" parent="1">
          <mxGeometry x="-1127" y="-273" width="275" height="37" as="geometry" />
        </mxCell>
        <mxCell id="ph6KvJz50yeCgQCEXLz_-66" value="Link" style="text;html=1;align=center;verticalAlign=middle;resizable=0;points=[];autosize=1;strokeColor=none;fillColor=none;fontSize=16;" vertex="1" parent="1">
          <mxGeometry x="48.5" y="-3.5" width="47" height="31" as="geometry" />
        </mxCell>
      </root>
    </mxGraphModel>
  </diagram>
</mxfile>
